<?xml version="1.0" encoding="utf-8"?>
<!-- Generator: Adobe Illustrator 23.0.3, SVG Export Plug-In . SVG Version: 6.00 Build 0)  -->
<svg version="1.1" id="Layer_1" xmlns="http://www.w3.org/2000/svg" xmlns:xlink="http://www.w3.org/1999/xlink" x="0px" y="0px"
	 viewBox="0 0 300 300" style="enable-background:new 0 0 300 300;" xml:space="preserve">
<style type="text/css">
	.st0{fill:#7D6657;}
	.st1{fill:#30241C;}
	.st2{fill:#E2AD86;}
	.st3{fill:#A36E4A;}
	.st4{fill:#BD7D35;}
	.st5{fill:#D48C3B;}
	.st6{fill:#403020;}
	.st7{opacity:0.07;fill:#403020;}
	.st8{fill:#F2CC9E;}
	.st9{fill:#EDC095;}
	.st10{fill:#DBB98F;}
	.st11{fill:#A86522;}
	.st12{opacity:0.27;fill:#6B4116;}
	.st13{fill:#CCBCAB;}
	.st14{fill:#D1A07C;}
	.st15{fill:#85501B;}
	.st16{opacity:0.63;fill:#85501B;}
	.st17{fill:#573411;}
	.st18{fill:#BD865C;}
	.st19{fill:#DEAB85;}
	.st20{fill:#BA7D56;}
	.st21{fill:#F5F5F5;}
	.st22{fill:#6AA0A3;}
	.st23{fill:#50787A;}
	.st24{fill:#B07C5A;}
	.st25{fill:#41967C;}
	.st26{opacity:0.28;fill:#C7FFEE;}
	.st27{fill:#32735F;}
	.st28{fill:#C4885B;}
	.st29{fill:#FC8781;}
	.st30{fill:#F46458;}
	.st31{fill:#F7C392;}
	.st32{fill:#FA796E;}
	.st33{fill:#FC918B;}
	.st34{fill:#FFFFFF;}
	.st35{fill:#D9BDA9;}
</style>
<g>
	<path class="st0" d="M92.87,204.99C68.66,176,41.78,109.44,49.58,81.52c7.8-27.92,43.88-78.9,100.57-76.43
		c57.21,2.51,139.42,66.83,124.3,143.72C269.42,174.39,144.3,266.53,92.87,204.99z"/>
	<path class="st1" d="M96.49,207.14C72.28,178.16,45.4,111.6,53.19,83.68c7.8-27.93,43.88-78.91,100.59-76.43
		c57.19,2.5,139.41,66.83,124.3,143.72C273.04,176.54,147.93,268.69,96.49,207.14z"/>
	<path class="st2" d="M205.33,137.24c14.92-5.36,24.48,11.45-8.4,28.07C201.58,156.8,204.73,147.37,205.33,137.24z"/>
	<path class="st3" d="M203.51,141.76c5.19-1.89,13.69,8.29-4.5,16.08L203.51,141.76z"/>
	<path class="st2" d="M87.05,136.18c1.43-0.45,3.24-0.45,5.28,0.04c1.03,9.94,1.67,17.61,3.72,24.72c-1.53-1.45-2.84-2.84-4.05-4.16
		c0-0.04,0-0.04,0-0.04C81.45,145.09,81.99,137.81,87.05,136.18z"/>
	<path class="st4" d="M218.54,222.28c1.26,2.75,2.62,5.56,4.09,8.3c0,0-16.74,1.86-29.09-0.29c-4.3-21.27,0.56-58.94,0.75-60.36
		c0-0.04,0-0.04,0-0.04c0.95-1.51,1.81-3.02,2.64-4.58c32.88-16.62,23.32-33.43,8.4-28.07c0,0-41.57-43.44-56.68-62.96
		c0.88-3.67,3.07-7.48,5.98-11.04c7.4-9.23,19.31-16.85,24.06-16.85c6.65,0,67.06,43.75,59.69,76.05
		c-15.75,68.98,8.31,88.55,8.31,88.55S231.84,217.64,218.54,222.28z"/>
	<path class="st5" d="M149.27,72.33c-0.22,0.65-0.46,1.3-0.62,1.94c15.11,19.52,56.68,62.96,56.68,62.96
		c2.11-0.75,4.11-1.06,5.91-0.99C193.9,115.66,172.73,90.73,149.27,72.33z"/>
	<path class="st4" d="M205.3,160.51c-2.42,1.58-5.19,3.19-8.37,4.79c-0.83,1.55-1.69,3.06-2.64,4.58c0,0,0,0,0,0.04
		c-0.19,1.43-5.06,39.09-0.75,60.36c8.14,1.42,18.15,1.1,24.06,0.72C207.97,208.5,203.88,183.71,205.3,160.51z"/>
	<path class="st5" d="M244.01,207.98c-3.65-4.8-9.79-15.93-10.82-36.95c-4.26-18.82-7.38-31.74-10.56-53.64
		c-3.58-24.55-38.32-45.17-67.52-54.72c-0.16,0.19-0.32,0.37-0.48,0.56c-1.09,1.34-2.03,2.72-2.91,4.1
		c25.84,11.55,61.87,26.48,65.88,53.83c7.55,51.31,10.74,63.16,19.19,94.06c3.82-1.58,6.86-2.9,8.53-3.63
		C244.86,210.39,244.44,209.19,244.01,207.98z"/>
	<path class="st6" d="M246.69,210.99c0,0-1.1-0.91-2.68-3.01c0.43,1.21,0.85,2.41,1.3,3.62
		C246.18,211.22,246.69,210.99,246.69,210.99z"/>
	<path class="st5" d="M208.29,158.37c-0.95,0.72-1.9,1.42-2.99,2.15c-1.43,23.2,2.66,47.98,12.29,70.49
		c3.06-0.21,5.03-0.42,5.03-0.42c-1.47-2.75-2.83-5.55-4.09-8.3c0.85-0.29,1.71-0.6,2.56-0.9
		C211.57,201.8,206.59,180.27,208.29,158.37z"/>
	<path class="st7" d="M199.01,64.82c10.83,7.44,20.53,15.64,29.25,24.42c-16.1-22.89-45.08-42.85-49.57-42.85
		c-4.76,0-16.66,7.62-24.06,16.85c-2.91,3.55-5.1,7.37-5.98,11.04c0.96,1.22,2,2.53,3.13,3.92
		C160.29,56.3,178.02,50.83,199.01,64.82z"/>
	<path class="st3" d="M93.13,139.93c-5.3-3.27-12.01,3.26,1.93,13.55L93.13,139.93z"/>
	<path class="st8" d="M205.33,137.24c-0.61,10.13-3.76,19.57-8.4,28.07c-0.83,1.55-1.69,3.06-2.64,4.58c0,0,0,0,0,0.04
		c-7.44,11.85-17.49,21.64-26.93,28.7c0,0,0,0,0,0.04c-9.94,7.41-19.12,11.79-23.77,12.24c-8.2,0.83-14.01-5.36-17.05-9.71
		c-1.62-2.34-2.44-4.15-2.44-4.15c-17.83-14.88-24.75-24.7-28.03-36.07l-0.03-0.03c-2.05-7.1-2.69-14.77-3.72-24.72
		c-0.11-1.09-0.22-2.22-0.33-3.4c-0.65-5.93,56.66-58.55,56.66-58.55C163.77,93.8,205.33,137.24,205.33,137.24z"/>
	<path class="st9" d="M95.26,157.67c0.2,0.86,0.39,1.71,0.61,2.55c3.38,5.66,7.99,11.68,13.36,16.4
		C113.59,167.94,104.62,161.64,95.26,157.67z"/>
	<path class="st9" d="M201.1,154.46c-14.24,8.04-34.54,14.68-28.53,23.69c1.06,1.31,2.18,2.35,3.32,3.18
		C185.96,174.37,194.58,165.38,201.1,154.46z"/>
	<path class="st10" d="M148.65,74.27c0,0-46.73,42.91-55.31,55.6c20.29-13.2,39.25-27.85,54.61-47.51
		c14.93,19.79,33.1,37.18,53.52,50.82C190.84,121.97,160.98,90.17,148.65,74.27z"/>
	<path class="st11" d="M193.54,230.29c0.23,1.12,0.48,2.19,0.75,3.22c0,0-17.27,1.32-27.27-1.03c-4.62-12.69,0.07-32.67,0.34-33.81
		c0-0.04,0-0.04,0-0.04c9.44-7.06,19.49-16.85,26.93-28.7C194.11,171.35,189.24,209.01,193.54,230.29z"/>
	<path class="st12" d="M193.54,230.29c-4.3-21.27,0.56-58.94,0.75-60.36c-2.12,3.38-4.47,6.57-6.93,9.59
		c-3.61,18.15-4.06,36.77-0.92,54.32c4.54-0.08,7.85-0.33,7.85-0.33C194.03,232.48,193.77,231.41,193.54,230.29z"/>
	<path class="st12" d="M216.22,150.67c-3.17,4.47-9.25,9.57-19.28,14.64c-0.83,1.55-1.69,3.06-2.64,4.58c0,0,0,0,0,0.04
		c-7.44,11.85-17.49,21.64-26.93,28.7c0,0,0,0,0,0.04c-0.27,1.15-4.96,21.12-0.34,33.81c4.3,1.01,9.93,1.33,14.97,1.38
		c-2.46-5.97-4.01-12.18-4.41-18.34C196.82,197.09,210.88,176.07,216.22,150.67z"/>
	<path class="st11" d="M102.38,212.79l-0.38-0.19c-12.98,0.49-16.32-6.13-16.32-6.13c1.85-1.73,3.5-3.54,4.97-5.39
		c-9.4,1.2-16.31-7.37-16.31-7.37C94.22,183.59,92.1,157.94,92,156.77c1.21,1.33,2.52,2.71,4.05,4.16l0.03,0.03
		c3.29,11.37,10.2,21.19,28.03,36.07c0,0,0.82,1.82,2.44,4.15c0,0-0.45,12.05-4.22,25.2c-14.24,1.51-22.97-8.11-22.97-8.11
		C100.33,216.69,101.37,214.84,102.38,212.79z"/>
	<path class="st13" d="M97.18,212.43c1.44,0.17,3.04,0.25,4.83,0.18l0.38,0.19c-1.02,2.05-2.06,3.89-3.02,5.49
		c0,0,0.34,0.36,0.92,0.88c4.81-10.42,9.08-21.14,12.85-31.97c-0.95-0.95-1.85-1.86-2.7-2.77
		C107.21,194.29,102.72,203.64,97.18,212.43z"/>
	<path class="st6" d="M96.07,160.97l-0.03-0.03c-1.53-1.45-2.84-2.84-4.05-4.16c0.1,1.17,2.22,26.82-17.64,36.95
		c0,0,5.01,6.18,12.29,7.29c5.94-10,10.3-20.74,12.51-32.17C97.87,166.26,96.85,163.64,96.07,160.97z"/>
	<path class="st11" d="M100.28,219.16c1.33,1.23,4.13,3.47,8.16,5.17c4.17-10.68,7.28-21.67,9.15-32.95
		c-1.6-1.44-3.09-2.84-4.46-4.2C109.37,198.02,105.1,208.74,100.28,219.16z"/>
	<path class="st12" d="M124.11,197.04c-2.37-1.96-4.51-3.84-6.51-5.65c-1.87,11.27-4.98,22.27-9.15,32.95
		c3.68,1.56,8.37,2.64,13.88,2.06c3.77-13.15,4.22-25.2,4.22-25.2C124.93,198.86,124.11,197.04,124.11,197.04z"/>
	<path class="st12" d="M124.11,197.04c-17.83-14.88-24.75-24.7-28.03-36.07l-0.03-0.03c-1.53-1.45-2.84-2.84-4.05-4.16
		c0.03,0.44,0.37,4.37-0.31,9.63c3.74,15.49,12.05,29.07,23.11,39.67c1.21,6.57,0.87,13.29-0.54,20.01
		c2.44,0.45,5.12,0.63,8.07,0.32c1.2-4.19,2.07-8.26,2.69-11.87c1.32-7.73,1.53-13.33,1.53-13.33
		C124.93,198.86,124.11,197.04,124.11,197.04z"/>
	<path class="st2" d="M122.33,226.39c3.77-13.15,4.22-25.2,4.22-25.2c3.04,4.35,8.85,10.54,17.05,9.71
		c4.64-0.46,13.83-4.84,23.77-12.24c-0.27,1.15-4.96,21.12-0.34,33.81c2.03,5.59,36.26,20.38,43.06,20.94
		c0,0-22.4,38.61-54.74,41.42c-52.52,4.55-75.28-41.99-75.28-41.99C109.16,245.6,121.27,230.13,122.33,226.39z"/>
	<path class="st14" d="M161.24,219.71c1.3-0.77,2.53-1.61,3.79-2.43c0.17-9.36,2.17-17.89,2.34-18.62
		c-9.94,7.41-19.12,11.79-23.77,12.24c-8.2,0.83-14.01-5.36-17.05-9.71c0,0-0.03,1.14-0.2,3.07
		C135.71,214.72,146,225.8,161.24,219.71z"/>
	<path class="st11" d="M154.63,63.23c-2.91,3.55-5.1,7.37-5.98,11.04c0,0-57.31,52.62-56.66,58.55c0.1,1.17,0.22,2.31,0.33,3.4
		c-2.03-0.49-3.84-0.49-5.28-0.04c-3.47-56.25,35.97-91.19,41.62-89.79C134.34,47.82,147.56,55.83,154.63,63.23z"/>
	<path class="st15" d="M149.38,71.98c0.62-1.6,1.43-3.19,2.42-4.78c-29.92,6.95-51.41,28-64.72,54.84c-0.1,1.43-0.11,2.92-0.15,4.4
		C102.05,102.86,124.46,83.31,149.38,71.98z"/>
	<path class="st16" d="M128.67,46.39c-5.65-1.4-45.09,33.55-41.62,89.79c0.54-0.18,1.19-0.22,1.84-0.25
		c-2.87-33.53,27.66-76.13,58.77-71.27c0.5-2.14,0.93-4.32,1.28-6.51C141.87,52.5,133.04,47.49,128.67,46.39z"/>
	<path class="st16" d="M154.63,63.23c-1.62-1.7-3.59-3.42-5.69-5.1c-1.17,7.42-3.14,14.51-5.86,21.29c3.45-3.2,5.58-5.16,5.58-5.16
		C149.53,70.6,151.72,66.79,154.63,63.23z"/>
	<path class="st17" d="M150.99,126.45c3.06-4.15,6.36-6.6,9.68-8.4c3.34-1.88,6.66-1.5,9.93-1.52c3.27-0.03,6.52,0.51,9.41,2.17
		c2.86,1.71,5.38,4.63,6.4,8.86l-0.61,0.68c-1.91-2.91-4.5-4.31-7.33-4.57c-2.81-0.34-5.79,0.15-8.81,0.96
		c-3.04,0.84-6.11,2.96-9.16,3.29c-3.07,0.41-6.16,0.67-9.47-0.5L150.99,126.45z"/>
	<path class="st17" d="M124.01,124.83c-2.5,1.38-5.04,1.34-7.5,1.14c-2.44-0.12-4.97-1.86-7.35-2.37c-2.35-0.6-4.59-0.68-6.54,0.16
		c-2.06,0.69-3.76,2.46-5.32,4.53l-0.56-0.6c0.69-3.08,1.92-5.85,3.8-7.94c1.95-1.96,4.59-2.87,7.23-3.09
		c2.66-0.18,5.33-0.58,8.08,0.87c2.72,1.38,5.4,3.22,8.11,6.46L124.01,124.83z"/>
	<path class="st18" d="M132.43,156.74c0,0,4.73,6.11,8.5,8.56c0,0-5.19,0.85-8.5,0C132.43,165.3,128.65,157.52,132.43,156.74z"/>
	<path class="st19" d="M132.27,156.65c1.55-3.68,2.4-7.73,2.25-11.72c-0.01-3.98-1.3-7.98-3.92-11.04l0.3-0.26
		c2.33,0.69,4.21,2.37,5.44,4.43c1.3,2.04,1.82,4.45,1.94,6.77c0.02,2.35-0.38,4.63-1.35,6.69c-0.92,2.05-2.27,3.96-4.34,5.28
		L132.27,156.65z"/>
	<g>
		<g>
			<path class="st20" d="M122,136.98c-1.03-1.72-2.2-3.35-3.63-4.67c-1.45-1.3-3.23-2.21-5.13-2.37c-1.89-0.24-3.85,0.2-5.65,0.97
				c-1.8,0.78-3.52,1.83-5.17,2.96l-0.34-0.43c0.45-2.75,1.79-4.87,3.77-6.5c1.92-1.65,4.8-2.75,7.96-2.42
				c3.19,0.29,6.11,2.25,7.5,4.59c1.47,2.3,1.91,4.9,1.17,7.59L122,136.98z"/>
			<g>
				<path class="st21" d="M122.22,140.54c-6.94,8.78-17.27,6.15-22.67-3.68c1.16,0.11,2.86-0.09,5.19-1.12
					c0.92-0.41,1.87-0.8,2.85-1.07v0.03c-0.98,9.59,7.12,16.25,10.09,1.04c1.57,1.03,3.1,2.58,4.59,4.8H122.22z"/>
				<path class="st22" d="M107.59,134.67c3.32-1,6.77-1.14,10.09,1.07c-2.97,15.21-11.07,8.55-10.09-1.04V134.67z"/>
				<path class="st23" d="M107.71,134.71c0.78,2.02,1.45,3.71,2.26,5.16c0.74,1.41,2.03,2.58,2.2,2.42
					c-0.03,0.04,0.1,0.12,0.56-0.24c0.49-0.29,0.96-0.93,1.5-1.59c1.02-1.37,1.99-3.05,3.31-4.76l0.26,0.05
					c-0.35,1.91-0.81,3.84-1.64,5.63c-0.42,0.88-0.91,1.75-1.62,2.49c-0.69,0.72-1.75,1.28-2.83,1.08
					c-2.19-0.54-3.18-2.63-3.78-4.44c-0.57-1.88-0.69-3.89-0.47-5.84L107.71,134.71z"/>
				<path class="st24" d="M99.55,136.86c1.63,1.77,3.23,3.38,5.01,4.7c1.77,1.29,3.7,2.31,5.72,2.72c2.02,0.49,4.11,0.34,6.14-0.33
					c2.03-0.69,3.94-1.93,5.81-3.41c-0.98,2.18-2.69,4.12-4.96,5.35c-2.23,1.26-5.03,1.61-7.58,1.04c-2.55-0.6-4.82-1.98-6.54-3.8
					C101.43,141.34,100.19,139.16,99.55,136.86z"/>
				<path d="M122.69,141.58c-1.58-1.89-3.25-3.7-5.27-4.78c-1.96-1.17-4.14-1.52-6.25-1.16c-1.07,0.18-2.11,0.54-3.14,1.01
					c-1.14,0.47-1.91,0.85-3.25,1.28c-1.4,0.4-2.81,0.6-4.29,0.38c-0.39-0.06-0.73-0.13-1.13-0.25c-0.25-0.12-0.71-0.28-1.03-0.48
					c-0.65-0.41-1.24-0.95-1.46-1.72l0.33-0.22c2.29,0.61,4.15-0.59,6.01-1.47c0.92-0.5,2.41-1.16,3.63-1.37
					c1.32-0.24,2.71-0.43,4.1-0.41c2.79-0.04,5.65,1.01,7.65,2.76c2.02,1.76,3.4,3.97,4.43,6.22L122.69,141.58z"/>
				<path d="M111.92,135.18c-2.61-0.71-4.1,3.79-1.08,4.97C113.87,141.31,115.5,136.15,111.92,135.18z"/>
				<path class="st21" d="M111.96,136.99c-0.83,1.06,1.45,3.17,2.6,2.05C115.71,137.93,113.09,135.54,111.96,136.99z"/>
			</g>
		</g>
		<g>
			<path class="st20" d="M157.82,136.24c-0.16-2.72,0.73-5.12,2.4-7.15c1.62-2.07,4.28-3.66,7.27-4c2.97-0.36,5.92,0.51,7.99,2.11
				c2.1,1.55,3.56,3.66,4.1,6.31l-0.29,0.39c-1.67-1.21-3.42-2.32-5.31-3.07c-1.88-0.77-3.92-1.12-5.89-0.85
				c-1.98,0.21-3.86,1.06-5.51,2.26c-1.62,1.21-3.05,2.7-4.34,4.31L157.82,136.24z"/>
			<g>
				<path class="st22" d="M164.53,134.95c3-1.43,6.1-1.7,9.65-0.47C172.23,149.38,165.27,146.26,164.53,134.95z"/>
				<path class="st21" d="M164.53,134.95c0.74,11.31,7.71,14.43,9.65-0.47c1.53,0.52,3.13,1.33,4.85,2.45
					c0.79,0.51,1.68,0.86,2.49,1.1c-8.33,8.57-14.21,10.88-23.51,1.79C160.21,137.66,162.34,136,164.53,134.95z"/>
				<path class="st23" d="M164.64,134.94c0.99,1.87,1.76,3.63,2.65,5.14c0.46,0.72,0.86,1.44,1.35,1.86
					c0.46,0.5,0.78,0.47,0.54,0.42c-0.13,0.11,0.36-0.1,0.77-0.69c0.48-0.51,0.87-1.29,1.32-2.04c0.88-1.58,1.68-3.35,2.78-5.16
					l0.26,0.03c-0.25,1.94-0.58,3.87-1.19,5.75c-0.31,0.94-0.69,1.86-1.24,2.71c-0.54,0.81-1.28,1.67-2.4,1.84
					c-1.13,0.14-2.08-0.64-2.67-1.41c-0.62-0.8-1.04-1.71-1.37-2.64c-0.65-1.87-0.94-3.83-1.05-5.78L164.64,134.94z"/>
				<path class="st24" d="M158.01,139.83c2.03,1.25,3.93,2.52,5.93,3.42c2,0.91,4.04,1.39,6.02,1.08c2-0.27,3.94-1.25,5.84-2.43
					c1.9-1.19,3.73-2.59,5.72-3.87c-1.25,2-2.76,3.83-4.57,5.42c-1.8,1.57-4.04,2.92-6.64,3.32c-2.64,0.36-5.29-0.47-7.3-1.84
					C160.96,143.57,159.31,141.79,158.01,139.83z"/>
				<path d="M156.7,140.87c1.65-2.08,3.44-4.1,5.65-5.78c2.24-1.66,5.01-2.82,8.03-2.86c2.98-0.03,6.02,0.67,8.31,2.31l1.6,1.22
					c0.42,0.36,0.83,0.61,1.39,0.95c0.96,0.56,2.22,1.05,3.48,1.55l0.03,0.36c-1.36,0.56-2.76,0.77-4.32,0.56
					c-0.7-0.06-1.52-0.33-2.25-0.6l-0.45-0.2l-0.48-0.24l-0.85-0.39c-2.25-0.99-4.28-2.29-6.59-2.56c-2.27-0.32-4.77,0.29-6.93,1.48
					c-2.27,1.12-4.31,2.8-6.36,4.46L156.7,140.87z"/>
				<path d="M168.65,134.88c-2.38-0.64-3.72,3.44-0.98,4.51C170.41,140.43,171.88,135.76,168.65,134.88z"/>
				<path class="st21" d="M168.67,136.51c-0.74,0.95,1.34,2.88,2.37,1.87C172.08,137.36,169.71,135.2,168.67,136.51z"/>
			</g>
		</g>
		<g>
			<polygon class="st25" points="95.26,131.34 86.74,130.74 86.74,135.84 93.86,145.01 			"/>
			<path class="st26" d="M130.94,140.97c-0.02-0.46,0-0.88,0.07-1.26c-0.23-7.52-9.49-14.28-20.6-13.74
				c-6.67,6.32-9.68,15.95-5.18,22.71c3.11,4.14,6.45,7.61,9.96,10.49C122.46,158.14,129.62,152.78,130.94,140.97z"/>
			<path class="st26" d="M185.39,137.59c-0.53-3.93-2.96-7.47-8.37-9.69c-2.98-1.21-5.96-1.82-8.83-1.96
				c-13.3,3.85-14.94,26.82,7.22,30.75c0.03-0.03,0.1-0.04,0.14-0.08C180.99,152.97,186.33,144.68,185.39,137.59z"/>
			<g>
				<path class="st27" d="M112.61,161.54L112.61,161.54c-3.96,0-7.75-1.09-10.71-3.1c-1.65-1.12-3.26-2.58-4.68-4.23
					c-4.47-5.19-6.76-11.45-6.1-16.75c0.47-3.83,2.46-7.11,5.78-9.45c1.15-0.82,2.48-1.52,3.93-2.14c3.51-1.43,7.16-2.16,10.85-2.16
					c11.4,0,21.25,7.29,21.51,15.92c0,0.56-0.01,1.05-0.06,1.56C131.46,156.21,121.03,161.54,112.61,161.54z M111.68,128.11
					c-3.12,0-6.21,0.61-9.19,1.83c-1.15,0.47-2.18,1.02-3.05,1.65c-2.31,1.64-3.64,3.79-3.98,6.4c-0.47,4.04,1.46,9.16,5.09,13.35
					c1.17,1.36,2.48,2.55,3.81,3.46c2.2,1.49,5.21,2.35,8.25,2.35c6.91,0,14.8-4.32,16.14-16.43c0.03-0.34,0.05-0.67,0.05-1.02
					C128.63,133.55,120.61,128.11,111.68,128.11z"/>
			</g>
			<g>
				<path class="st27" d="M166.06,161.54c-8.41,0-18.83-5.32-20.48-20.33c-0.39-3.54,0.9-7.16,3.63-10.21
					c4.08-4.56,10.73-7.28,17.78-7.28c3.69,0,7.34,0.73,10.85,2.16c7.16,2.94,9.22,7.83,9.71,11.42c1.07,8-4.65,17.04-10.78,21.15
					C173.83,160.44,170.02,161.54,166.06,161.54z M167,128.11c-5.73,0-11.3,2.22-14.51,5.81c-1.35,1.49-2.86,3.88-2.53,6.8
					c1.32,12.11,9.19,16.43,16.11,16.43c3.05,0,6.06-0.86,8.26-2.35c4.94-3.3,9.69-10.89,8.89-16.91c-0.48-3.56-2.84-6.23-7.02-7.94
					C173.22,128.72,170.11,128.11,167,128.11z"/>
			</g>
			<g>
				<path class="st25" d="M147.77,143.16c-0.88,0-1.71-0.52-2.05-1.39c-1.35-3.42-6.14-5.55-9.37-5.1
					c-1.94,0.27-2.97,1.33-3.17,3.24c-0.06,0.38-0.08,0.64-0.05,0.94c0.05,1.21-0.88,2.24-2.09,2.3c-1.23,0.02-2.24-0.88-2.29-2.08
					c-0.03-0.62,0.01-1.19,0.1-1.74c0.37-3.77,2.94-6.45,6.9-7c5.01-0.71,11.87,2.26,14.07,7.82c0.44,1.13-0.11,2.41-1.23,2.86
					C148.31,143.11,148.03,143.16,147.77,143.16z"/>
			</g>
			<path class="st25" d="M185.2,131.34l22.8,0.89l3.24,4.01c0,0-17.01,3.7-26.77,8.56L185.2,131.34z"/>
		</g>
	</g>
	<g>
		<path class="st28" d="M133.84,191.1c1.81,0.65,3.7,1.12,5.6,1.1c1.89,0.1,3.8-0.35,5.43-1.35l0.19,0.27
			c-0.22,1.47-1.09,2.54-2.15,3.25c-1.06,0.75-2.31,0.99-3.52,1.03c-1.22-0.07-2.38-0.36-3.37-1.04c-1-0.64-1.83-1.55-2.32-2.95
			L133.84,191.1z"/>
		<path class="st29" d="M155.35,181.3c-1.53,2.73-8.54,11.76-17.27,11.04c-10.4-0.87-12.52-11.94-12.52-11.94
			C138.64,185.62,154.39,181.48,155.35,181.3z"/>
		<path class="st30" d="M152.98,181.18l0.13,0.74c-11.71,2.24-20.21,0.79-25.76-1.19c0,0,2.43-7.32,4.6-7.32
			c2.18,0.03,7.47,3.83,7.47,3.83s4.1-4.15,6.95-3.57C149.2,174.23,152.98,181.18,152.98,181.18z"/>
		<path class="st31" d="M127.04,180.97c0.19-1.48,0.61-2.89,1.08-4.32c0.27-0.71,0.6-1.4,1.01-2.09c0.46-0.65,0.8-1.46,2.15-1.94
			c1.28-0.18,2.05,0.17,2.8,0.44c0.73,0.29,1.42,0.63,2.1,0.98c1.34,0.71,2.6,1.47,3.87,2.31l-1.84,0.17
			c1.2-1.19,2.48-2.11,3.99-2.91c0.76-0.4,1.57-0.75,2.55-0.9c0.94-0.2,2.24,0.06,2.98,0.7c1.48,1.12,2.33,2.45,3.18,3.76
			c0.74,1.39,1.46,2.76,1.92,4.24l-0.12,0.08c-0.76-1.31-1.59-2.59-2.5-3.81c-0.91-1.19-1.88-2.41-3.15-3.21
			c-1.27-0.87-2.91-0.31-4.17,0.41c-1.31,0.74-2.5,1.71-3.57,2.75l-0.1,0.09l-0.11-0.07c-1.17-0.83-2.39-1.62-3.65-2.34
			c-1.25-0.65-2.58-1.48-3.94-1.48c-1.3,0.48-2,1.98-2.68,3.19c-0.64,1.3-1.19,2.64-1.67,4.02L127.04,180.97z"/>
		<path class="st32" d="M126.95,180.95c0.47-1.39,1.01-2.74,1.64-4.06c0.72-1.25,1.26-2.77,2.87-3.41c1.66-0.03,2.9,0.83,4.22,1.46
			c1.28,0.7,2.51,1.48,3.73,2.32l-0.41,0.03c1.12-1.08,2.33-2.03,3.7-2.79c1.3-0.72,3.13-1.35,4.57-0.35
			c1.33,0.9,2.29,2.12,3.21,3.34c0.89,1.24,1.71,2.53,2.45,3.87l-0.28,0.15c-1.28-1-2.38-2.07-3.54-3c-1.08-0.93-2.32-1.9-3.15-2.19
			c-0.39-0.07-0.2,0.07-0.56,0.14c-0.29,0.11-0.75,0.36-1.23,0.69c-0.96,0.59-2.06,1.54-2.91,2.37l-0.09,0.1
			c-0.99,0.97-2.54,1.04-3.6,0.21c-1.04-0.81-2.25-1.57-3.33-2.31c-0.55-0.37-1.1-0.72-1.61-1.01c-0.47-0.3-1.07-0.45-0.66-0.61
			c0.55-0.36-0.14-0.08-0.52,0.28c-0.45,0.38-0.89,0.89-1.35,1.44l-2.82,3.41L126.95,180.95z"/>
		<path class="st33" d="M128,181.14c3.94,1.24,8.05,1.79,12.16,1.84c4.11,0.18,8.24-0.19,12.3-0.86l0.06,0.32
			c-1.84,1.48-3.88,2.35-5.98,2.94c-2.11,0.62-4.28,0.8-6.47,0.8c-2.19-0.11-4.38-0.41-6.46-1.18c-2.08-0.74-4.1-1.84-5.71-3.55
			L128,181.14z"/>
		<path class="st34" d="M130.32,183.76c-1.19,1.85,2,2.74,2.61,1.55C133.52,184.1,131.53,181.9,130.32,183.76z"/>
		<g>
			<path class="st35" d="M119.03,176.42c3.47,1.87,7.16,2.88,10.82,3.66c3.67,0.72,7.4,1.08,11.16,1.08
				c7.53,0.13,15.06-1.06,22.96-2.06l0.07,0.22c-7.39,2.56-15.18,4.27-23.07,4.24c-3.94-0.06-7.88-0.57-11.66-1.67
				c-3.76-1.12-7.45-2.73-10.46-5.31L119.03,176.42z"/>
		</g>
	</g>
</g>
</svg>
